# xmcd
#
# Track frame offsets: 
#        150
#        17175
#        37282
#
# Disc length: 951 seconds
#
# Revision: 0
# Processed by: cddbd v1.5.2PL0 Copyright (c) Steve Scherf et al.
# Submitted via: ExactAudioCopy v0.99pb5
#
DISCID=2303b503
DTITLE=Rubbadubb - (Maxi) Success
DYEAR=1998
DGENRE=
TTITLE0=Success (7" edit)
TTITLE1=Success (Album version)
TTITLE2=Success (Rub a club mix)
EXTD=
EXTT0=
EXTT1=
EXTT2=
PLAYORDER=
